<?xml version="1.0" encoding="utf-8"?>
<!-- Generator: Adobe Illustrator 23.1.1, SVG Export Plug-In . SVG Version: 6.00 Build 0)  -->
<svg version="1.1" id="Capa_1" xmlns="http://www.w3.org/2000/svg" xmlns:xlink="http://www.w3.org/1999/xlink" x="0px" y="0px"
	 viewBox="0 0 214.74 162.95" style="enable-background:new 0 0 214.74 162.95;" xml:space="preserve">
<style type="text/css">
	.st0{display:none;}
	.st1{display:inline;fill:#FFFFFF;}
</style>
<g>
	<g>
		<path d="M73.8,131.43c0-5.61,3.14-10.76,8.4-13.79c0.46-0.26,0.97-0.4,1.5-0.4h2.51v-5.02c-0.28-0.2-0.55-0.4-0.8-0.62
			c-1.33-1.14-1.94-2.81-1.69-4.45c-0.12-0.01-0.23-0.04-0.35-0.04c-0.66,0-1.31,0.23-1.83,0.67c-1.86,1.56-3.65,2.92-5.32,4.02
			c-1.61,1.06-3.17,1.91-4.64,2.53c-0.04,0.01-0.07,0.03-0.11,0.05c-2.56,1.19-5.77,1.79-9.55,1.79c-7.44,0-13.54-2.53-18.65-7.74
			c-5.13-5.22-7.62-11.47-7.62-19.1c0-7.74,2.5-14.1,7.64-19.43c5.09-5.34,11.16-7.93,18.58-7.93c5.06,0,10.08,1.55,14.98,4.61
			c-0.55-2.66-0.57-4.71-0.53-7.08c0.03-1.79,0.31-3.73,0.85-5.79c0.09-0.35,0.24-0.67,0.44-0.95c0.01-0.06,0.02-0.13,0.03-0.19
			c0.26-1.5,0.7-2.96,1.24-4.33c-5.25-2.16-10.67-3.27-16.18-3.27c-13.88,0-25.36,5.24-34.11,15.56
			c-7.11,8.42-10.71,18.14-10.71,28.9c0,12.01,4.31,22.42,12.82,30.92c8.55,8.44,19,12.72,31.08,12.72c4.1,0,8.12-0.55,12.05-1.63
			C73.8,131.44,73.8,131.44,73.8,131.43z"/>
		<path d="M194.05,46.52h-11.99c-1.57,0-2.84,1.27-2.84,2.84V77.6h-28.57V49.37c0-1.57-1.27-2.84-2.84-2.84h-11.14
			c0.06,0.09,0.11,0.17,0.17,0.27c3.5,5.77,6.66,15.03,7.37,17.16l1.66,2.39c1.77,2.57,2.39,6.16,1.62,9.38
			c-0.58,2.4-1.84,4.23-3.55,5.15c-2.26,1.22-4.27,1.81-6.16,1.81c-2.04,0-3.61-0.67-4.8-1.66v36.79c5.11,3.04,8.16,8.1,8.16,13.62
			c0,0.07-0.02,0.14-0.02,0.21h6.69c1.57,0,2.84-1.27,2.84-2.84V94.55h28.57v34.25c0,1.57,1.27,2.84,2.84,2.84h11.99
			c1.57,0,2.84-1.27,2.84-2.84V49.37C196.89,47.8,195.62,46.52,194.05,46.52z"/>
	</g>
	<g>
		<g>
			<g class="st0">
				<path class="st1" d="M121.86,42.11c-6.87-1.51-14.14-0.48-20.25,2.61c-3.05,1.55-5.83,3.61-8.08,6.1
					c-2.24,2.48-4.03,5.43-4.89,8.53c-0.91,3.23-1.42,6.61-1.32,9.88c0.06,1.63,0.23,3.25,0.64,4.77c0.47,1.55,1.13,3.01,1.92,4.32
					c3.16,5.3,9.15,7.8,15.45,9.3l-2.74,8.22c-3.47-1.51-6.93-3.3-10.05-5.8c-3.12-2.45-5.77-5.82-7.2-9.54
					c-0.73-1.85-1.16-3.75-1.44-5.63c-0.36-1.9-0.43-3.81-0.37-5.68c0.16-3.75,0.97-7.36,2.21-10.8c0.16-0.43,0.32-0.86,0.5-1.29
					l0.14-0.33c0.05-0.13,0.12-0.25,0.17-0.35l0.33-0.63c0.44-0.83,0.92-1.62,1.44-2.39c1.04-1.53,2.25-2.94,3.57-4.2
					c2.65-2.53,5.76-4.5,9.08-5.89C107.61,40.56,115.11,40.11,121.86,42.11z"/>
			</g>
			<g>
				<path d="M143.39,68.05l-1.91-2.75c0,0-3.47-10.77-7.22-16.96c-0.75-1.24-1.51-2.3-2.25-3.04c0,0,0-0.01,0-0.01
					c-0.03-0.14-1.54-7.77,0-11.36c0,0-2.76,1.56-3.63,3.11c0,0,0.34-4.67,1.21-5.52c0,0-1.66,1.02-3.56,2.42
					c-0.49-0.13-2.92-0.73-6.52-1.1c-0.21,0.17-0.43,0.37-0.64,0.56c-0.32,0.3-0.61,0.62-0.9,0.96c-0.57,0.68-1.05,1.45-1.42,2.29
					c0.07-0.92,0.27-1.85,0.61-2.75c0.15-0.41,0.33-0.82,0.53-1.22c-2.36-0.17-5.09-0.22-8.03,0c-0.24,0.45-0.47,0.92-0.66,1.41
					c-0.51,1.3-0.89,2.7-1.09,4.14c-0.21-1.44-0.25-2.92-0.12-4.42c0.03-0.32,0.07-0.64,0.12-0.97c-3.54,0.39-7.31,1.19-11.05,2.65
					c-0.01,0.01-0.01,0.01-0.01,0.02c-0.02,1.38,0.09,2.77,0.26,4.16c0.09,0.74,0.18,1.49,0.32,2.22c-0.29-0.69-0.53-1.41-0.77-2.12
					c-0.41-1.22-0.78-2.45-1.05-3.73c0-0.01,0-0.02-0.01-0.04c-3.07,1.33-6.1,3.12-8.94,5.51c0.07,0.39,0.16,0.77,0.25,1.16
					c0.03,0.12,0.06,0.24,0.09,0.35c0.16,0.59,0.41,1.5,0.61,2.08c0.35,1.04,0.73,2.07,1.17,3.07c-0.58-0.79-1.11-1.62-1.62-2.47
					c-0.35-0.58-0.66-1.19-0.97-1.79c-0.15-0.28-0.31-0.54-0.45-0.83c-0.07-0.15-0.14-0.31-0.21-0.46
					c-1.21,1.44-4.14,5.74-4.95,10.46c0.58,1.16,2.03,3.5,2.8,4.56c-1.76-1.17-2.6-2.34-3.32-3.17c-0.44,1.67-0.73,3.38-0.75,5.07
					c-0.04,2.53,0.01,4.31,0.52,6.68c0.33,0.03,1.05,0.22,2.18,0.35c-1.18,0.33-1.74,0.4-2.06,0.43c0.61,2.74,1.64,5.55,4.08,9
					c-0.06-0.34-0.12-0.68-0.17-1.02c-0.38-1.98-0.45-3.96-0.38-5.9c0.16-3.9,1.01-7.64,2.29-11.21
					c2.77-7.43,8.96-12.79,15.81-15.66c6.89-2.89,14.69-3.36,21.69-1.27c-7.13-1.57-14.68-0.5-21.03,2.71
					c-3.17,1.6-6.05,3.75-8.39,6.34c-2.32,2.58-4.18,5.64-5.07,8.86c-0.95,3.36-1.47,6.86-1.37,10.26c0.06,1.7,0.24,3.37,0.66,4.96
					c0.49,1.61,0.98,3.1,1.8,4.46c1.15,1.92,3.01,3.64,4.64,5.28c5.64,3.84,7.35,9.83,5.17,14.75c-0.67,1.51-2.69,2.92-5.08,3.83
					c-0.32,0.12-0.23,0.61,0.12,0.61h26.55c0.62,0,1.22-0.25,1.66-0.69c4.27-4.26,5.45-13.13,4.32-16.81
					c-1.21-3.93-6.06-8.31-12.42-12.03c-1.02-0.6-1.88-1.54-1.9-3.11c-0.04-3.58,3.59-6.03,6.84-5.24c0,0,5.51,8.27,12.92,9.14
					c0,0,0.86,8.8,9.82,3.96C144.9,76.94,145.79,71.52,143.39,68.05z M131.3,55.43c-1.04-1.02-4.79-1.37-4.98-3.36
					c-0.27-2.72-1.6-3.59-1.6-3.59C132.38,50.05,131.3,55.43,131.3,55.43z"/>
				<path d="M131.2,120.25H83.69c-4.15,2.39-6.89,6.5-6.89,11.19h61.33C138.13,126.74,135.36,122.63,131.2,120.25z"/>
				<path d="M87.34,109.33c1.71,1.46,4.43,2.47,7.57,2.71c-0.22,1.26-1,2.46-2.3,3.48l-1.56,1.22h32.54l-1.64-1.29
					c-1.27-1-2.04-2.19-2.23-3.42c3.06-0.22,5.73-1.18,7.45-2.58c1.63-1.33,0.61-3.71-1.62-3.71H89.08
					C86.95,105.73,85.8,108.02,87.34,109.33z"/>
			</g>
		</g>
	</g>
</g>
</svg>
