<svg id="Capa_1" data-name="Capa 1" xmlns="http://www.w3.org/2000/svg" viewBox="0 0 525.5 162.9"><title>Logotipo_Chesza_v01</title><path d="M80.2,131.7a41.8,41.8,0,0,1-30.1-12.3,41.2,41.2,0,0,1-12.4-30A42,42,0,0,1,48.1,61.5c8.4-10,19.6-15.1,33-15.1a41.8,41.8,0,0,1,21.4,6,1.5,1.5,0,0,1,.7,1.2V67.8a1.3,1.3,0,0,1-.8,1.3l-.6.2a1.5,1.5,0,0,1-.9-.4c-6.7-5.5-13.6-8.3-20.6-8.3a26.3,26.3,0,0,0-19.6,8.3,28.3,28.3,0,0,0-8.1,20.4,27.5,27.5,0,0,0,8.1,20.1,26.2,26.2,0,0,0,19.6,8.2,24.1,24.1,0,0,0,10.2-1.9,34.5,34.5,0,0,0,4.9-2.7,55.7,55.7,0,0,0,5.5-4.1,1.5,1.5,0,0,1,.9-.4l.6.2a1.3,1.3,0,0,1,.8,1.3v14.4a1.7,1.7,0,0,1-.7,1.3A46.1,46.1,0,0,1,80.2,131.7Z"/><path d="M81.1,47.8a41.6,41.6,0,0,1,20.7,5.8V67.8c-6.9-5.8-14.1-8.7-21.5-8.7a27.7,27.7,0,0,0-20.7,8.8,29.9,29.9,0,0,0-8.4,21.4,28.9,28.9,0,0,0,8.4,21.1A27.9,27.9,0,0,0,80.3,119a27,27,0,0,0,10.8-2,33,33,0,0,0,5.1-2.8c1.8-1.2,3.6-2.6,5.6-4.2v14.4a43.2,43.2,0,0,1-21.6,5.8A40.6,40.6,0,0,1,39.1,89.4a40.6,40.6,0,0,1,10.1-27C57.4,52.7,68,47.8,81.1,47.8m0-2.8C67.2,45,55.7,50.2,47,60.5A44,44,0,0,0,36.3,89.4a42.4,42.4,0,0,0,12.8,31,43,43,0,0,0,31.1,12.7,46.4,46.4,0,0,0,23-6.2,2.9,2.9,0,0,0,1.4-2.5V110a2.9,2.9,0,0,0-1.6-2.6,2.7,2.7,0,0,0-1.2-.3,3.4,3.4,0,0,0-1.9.7,43.4,43.4,0,0,1-5.3,4,23.4,23.4,0,0,1-4.6,2.5.1.1,0,0,1-.1.1,22.8,22.8,0,0,1-9.6,1.8,24.9,24.9,0,0,1-18.6-7.8c-5.2-5.2-7.6-11.4-7.6-19.1a26.8,26.8,0,0,1,7.6-19.4A24.6,24.6,0,0,1,80.3,62c6.7,0,13.3,2.7,19.7,8a2.4,2.4,0,0,0,1.8.7l1.2-.3a2.9,2.9,0,0,0,1.6-2.6V53.6a2.7,2.7,0,0,0-1.4-2.4A43.8,43.8,0,0,0,81.1,45Z"/><path d="M167.8,130.2a1.4,1.4,0,0,1-1.4-1.4V93.1H135v35.7a1.4,1.4,0,0,1-1.4,1.4h-12a1.4,1.4,0,0,1-1.4-1.4V49.4a1.5,1.5,0,0,1,1.4-1.5h12a1.5,1.5,0,0,1,1.4,1.5V79h31.4V49.4a1.5,1.5,0,0,1,1.4-1.5h12a1.5,1.5,0,0,1,1.4,1.5v79.4a1.4,1.4,0,0,1-1.4,1.4Z"/><path d="M179.8,49.4v79.4h-12V91.7H133.6v37.1h-12V49.4h12v31h34.2v-31h12m0-2.9h-12a2.9,2.9,0,0,0-2.8,2.9V77.6H136.4V49.4a2.9,2.9,0,0,0-2.8-2.9h-12a2.9,2.9,0,0,0-2.9,2.9v79.4a2.8,2.8,0,0,0,2.9,2.8h12a2.8,2.8,0,0,0,2.8-2.8V94.5H165v34.3a2.8,2.8,0,0,0,2.8,2.8h12a2.8,2.8,0,0,0,2.9-2.8V49.4a2.9,2.9,0,0,0-2.9-2.9Z"/><path d="M202.9,130.2a1.4,1.4,0,0,1-1.4-1.4V49.4a1.5,1.5,0,0,1,1.4-1.5h43.8a1.5,1.5,0,0,1,1.4,1.5V60.6a1.5,1.5,0,0,1-1.4,1.5H216.3V78.3h29.5a1.4,1.4,0,0,1,1.4,1.4V91a1.4,1.4,0,0,1-1.4,1.4H216.3v23.7h30.4a1.4,1.4,0,0,1,1.4,1.4v11.3a1.4,1.4,0,0,1-1.4,1.4Z"/><path d="M246.7,49.4V60.6H214.9V79.7h30.9V91H214.9v26.5h31.8v11.3H202.9V49.4h43.8m0-2.9H202.9a2.9,2.9,0,0,0-2.9,2.9v79.4a2.8,2.8,0,0,0,2.9,2.8h43.8a2.7,2.7,0,0,0,2.8-2.8V117.5a2.8,2.8,0,0,0-2.8-2.8h-29V93.8h28.1a2.8,2.8,0,0,0,2.8-2.8V79.7a2.8,2.8,0,0,0-2.8-2.8H217.7V63.5h29a2.8,2.8,0,0,0,2.8-2.9V49.4a2.8,2.8,0,0,0-2.8-2.9Z"/><path d="M473.2,130.2a1.6,1.6,0,0,1-1.3-.8L464,110.9H431.8l-8.5,18.5a1.3,1.3,0,0,1-1.2.8h-13a1.6,1.6,0,0,1-1.2-.6,1.4,1.4,0,0,1,0-1.4l39.3-84.4a1.3,1.3,0,0,1,1.2-.8h.1a1.3,1.3,0,0,1,1.2.8l38,84.4a1.7,1.7,0,0,1-.2,1.4,1.3,1.3,0,0,1-1.1.6ZM457.8,96.8l-9.6-22.1L438.1,96.8Z"/><path d="M448.4,44.4l38,84.4H473.2l-8.3-19.3h-34l-8.8,19.3h-13l39.3-84.4M435.9,98.2H460l-11.8-27-12.3,27m12.5-56.7a2.7,2.7,0,0,0-2.5,1.7l-39.3,84.4a2.9,2.9,0,0,0,.1,2.7,3.1,3.1,0,0,0,2.4,1.3h13a2.6,2.6,0,0,0,2.5-1.6l8.1-17.7H463l7.6,17.6a2.8,2.8,0,0,0,2.6,1.7h13.2a2.6,2.6,0,0,0,2.3-1.3,2.6,2.6,0,0,0,.2-2.7L451,43.2a2.7,2.7,0,0,0-2.5-1.7Zm-8.1,53.9,7.9-17.2,7.5,17.2Z"/><path d="M337.7,130.2a1.2,1.2,0,0,1-1.2-.7,1.2,1.2,0,0,1,0-1.4l37.7-66H344.1a1.5,1.5,0,0,1-1.5-1.4V49.4a1.5,1.5,0,0,1,1.5-1.4h52.3a1.4,1.4,0,0,1,1.2,2.1l-37.8,66h35.7a1.5,1.5,0,0,1,1.4,1.5v11.2a1.4,1.4,0,0,1-1.4,1.4Z"/><path d="M396.4,49.4l-39,68.2h38.1v11.2H337.7l39-68.1H344.1V49.4h52.3m0-2.9H344.1a2.9,2.9,0,0,0-2.9,2.9V60.7a2.9,2.9,0,0,0,2.9,2.8h27.7l-36.6,63.9a2.8,2.8,0,0,0,0,2.8,2.9,2.9,0,0,0,2.5,1.5h57.8a2.9,2.9,0,0,0,2.9-2.9V117.6a2.9,2.9,0,0,0-2.9-2.9H362.3l36.6-63.9a2.6,2.6,0,0,0-.1-2.8,2.8,2.8,0,0,0-2.4-1.5Zm0,5.7Z"/><path d="M329.1,68l-1.9-2.7s-3.5-10.8-7.3-17a15.6,15.6,0,0,0-2.2-3h0c-.1-.2-1.6-7.8,0-11.4,0,0-2.8,1.6-3.6,3.1s.3-4.6,1.2-5.5-1.7,1-3.6,2.4a57.3,57.3,0,0,0-6.5-1.1l-.7.6-.9,1a11.8,11.8,0,0,0-1.4,2.2,13.1,13.1,0,0,1,.6-2.7l.6-1.2a54.6,54.6,0,0,0-8.1,0l-.6,1.4a19.1,19.1,0,0,0-1.1,4.1,16.1,16.1,0,0,1-.1-4.4,3.8,3.8,0,0,1,.1-1,42.7,42.7,0,0,0-11.1,2.7h0a29.7,29.7,0,0,0,.3,4.2,16.6,16.6,0,0,0,.3,2.2l-.8-2.1a23.6,23.6,0,0,1-1-3.8h0a35.7,35.7,0,0,0-9,5.5l.3,1.2a.4.4,0,0,0,.1.3,16.6,16.6,0,0,0,.6,2.1c.3,1,.7,2.1,1.1,3.1-.5-.8-1.1-1.6-1.6-2.5l-.9-1.8a3.5,3.5,0,0,1-.5-.8l-.2-.5a25.5,25.5,0,0,0-5,10.5c.6,1.2,2.1,3.5,2.8,4.6a16.8,16.8,0,0,1-3.3-3.2,22.4,22.4,0,0,0-.7,5.1,23.9,23.9,0,0,0,.5,6.6,9.5,9.5,0,0,0,2.2.4l-2.1.4a22.1,22.1,0,0,0,4.1,9c-.1-.3-.1-.7-.2-1a29.8,29.8,0,0,1-.4-5.9,38.5,38.5,0,0,1,2.3-11.2c2.8-7.4,9-12.8,15.8-15.7A32.4,32.4,0,0,1,308.9,41a31.6,31.6,0,0,0-21,2.7,27.7,27.7,0,0,0-8.4,6.3,23.5,23.5,0,0,0-5.1,8.9,35.3,35.3,0,0,0-1.3,10.2,20.7,20.7,0,0,0,.6,5,22.3,22.3,0,0,0,1.8,4.5,28.7,28.7,0,0,0,4.7,5.2c5.6,3.9,7.3,9.9,5.1,14.8-.6,1.5-2.6,2.9-5,3.8-.4.1-.3.6.1.6h26.5a2.2,2.2,0,0,0,1.7-.7c4.3-4.2,5.4-13.1,4.3-16.8s-6-8.3-12.4-12a3.6,3.6,0,0,1-1.9-3.1,5.6,5.6,0,0,1,6.8-5.3s5.5,8.3,13,9.2c0,0,.8,8.8,9.8,3.9C330.6,76.9,331.5,71.5,329.1,68ZM317,55.4c-1.1-1-4.8-1.3-5-3.3s-1.6-3.6-1.6-3.6C318,50,317,55.4,317,55.4Z"/><path d="M316.9,120.2H269.4a13,13,0,0,0-6.9,11.2h61.3A13.2,13.2,0,0,0,316.9,120.2Z"/><path d="M273,109.3a12.8,12.8,0,0,0,7.6,2.7,5.6,5.6,0,0,1-2.3,3.5l-1.6,1.2h32.6l-1.7-1.3a5.2,5.2,0,0,1-2.2-3.4,13.3,13.3,0,0,0,7.4-2.6c1.7-1.3.6-3.7-1.6-3.7H274.8C272.6,105.7,271.5,108,273,109.3Z"/></svg>